
<svg xmlns:dc="http://purl.org/dc/elements/1.1/" xmlns:cc="http://creativecommons.org/ns#" xmlns:rdf="http://www.w3.org/1999/02/22-rdf-syntax-ns#" xmlns:svg="http://www.w3.org/2000/svg" xmlns="http://www.w3.org/2000/svg" viewBox="0 0 817.70081 99.59053" height="99.59053" width="817.70081" xml:space="preserve" id="svg2" version="1.1" style="background: transparent;"><metadata id="metadata8"><rdf:RDF><cc:Work rdf:about=""><dc:format>image/svg+xml</dc:format><dc:type rdf:resource="http://purl.org/dc/dcmitype/StillImage"/></cc:Work></rdf:RDF></metadata><defs id="defs6"><clipPath id="clipPath14" clipPathUnits="userSpaceOnUse"><path id="path12" d="M -9,-9 H 604.2756 V 65.6929 H -9 Z"/></clipPath><clipPath id="clipPath24" clipPathUnits="userSpaceOnUse"><path style="clip-rule:evenodd" id="path22" d="M -9,-9 H 605 V 66 H -9 Z"/></clipPath></defs><g clip-path="url(#clipPath14)" transform="matrix(1.3333333,0,0,-1.3333333,12,87.590533)" id="g10"><g transform="matrix(1.3333333,0,0,-1.3333333,12,87.590533)" id="g16"><g id="g18"><g clip-path="url(#clipPath24)" id="g20"><g id="g26"><path id="path28" style="fill:#234ea8;fill-opacity:1;fill-rule:evenodd;stroke:none" d="m 518.1395,37.0723 -2.3743,-2.4029 2.3743,-2.4001 2.38,2.4001 z m 66.3786,0.1608 v -0.3212 l -9.3458,-9.4453 2.3743,-2.4024 2.3777,2.4024 2.3774,-2.4024 2.2164,2.2414 V 22.667 h -18.8498 v 4.7996 4.8027 l 2.3734,-2.3978 -2.3734,-2.4049 2.3734,-2.4024 2.3772,2.4024 2.3754,-2.4024 2.378,2.4024 c -3.1674,3.2031 -6.3386,6.4068 -9.504,9.6057 l 2.3734,2.4004 2.3772,-2.4004 2.3754,2.4004 2.378,-2.4004 2.3743,2.4004 2.3777,-2.4004 2.3774,2.4004 z m 0,-5.1245 v -4.4813 l -2.2164,2.2442 z M 10.353,22.667 v 3.7153 l 1.3028,-1.3181 2.3794,2.4024 -2.3794,2.4049 2.3794,2.3978 V 27.4666 22.667 Z m 0,10.6846 v 4.8041 l 1.3028,1.317 2.3794,-2.4004 z m 517.2953,3.7207 c -3.1728,-3.1989 -6.3388,-6.4026 -9.5088,-9.6057 l 2.38,-2.4024 2.3734,2.4024 2.3749,-2.4024 2.3805,2.4024 -2.3805,2.4049 2.3805,2.3978 2.3769,-2.3978 -2.3769,-2.4049 2.3769,-2.4024 2.3692,2.4024 2.3802,-2.4024 2.3726,2.4024 c -3.1637,3.2031 -6.3315,6.4068 -9.4989,9.6057 z m 9.4989,0 -2.3726,-2.4029 2.3726,-2.4001 2.3817,2.4001 z m 9.5066,0 c -3.1678,-3.1989 -6.3377,-6.4026 -9.5066,-9.6057 l 2.3817,-2.4024 2.3777,2.4024 2.3729,-2.4024 2.3743,2.4024 -2.3743,2.4049 2.3743,2.3978 2.3845,-2.3978 -2.3845,-2.4049 2.3845,-2.4024 2.3723,2.4024 2.3712,-2.4024 2.3811,2.4024 c -3.17,3.2031 -6.338,6.4068 -9.5091,9.6057 z m 9.5091,0 -2.3811,-2.4029 2.3811,-2.4001 2.3731,2.4001 z m -47.5283,-9.6057 v 4.8027 l 2.3789,-2.3978 -2.3789,-2.4049 2.3789,-2.4024 2.3748,2.4024 2.3769,-2.4024 2.3743,2.4024 -9.5049,9.6057 2.3789,2.4004 2.3748,-2.4004 2.3769,2.4004 2.3743,-2.4004 2.38,2.4004 2.3734,-2.4004 2.3749,2.4004 2.3805,-2.4004 2.3769,2.4004 2.3692,-2.4004 2.3802,2.4004 2.3726,-2.4004 2.3817,2.4004 2.3777,-2.4004 2.3729,2.4004 2.3743,-2.4004 2.3845,2.4004 2.3723,-2.4004 2.3712,2.4004 2.3811,-2.4004 2.3731,2.4004 2.3772,-2.4004 2.3717,2.4004 2.3834,-2.4004 c -3.1706,-3.1989 -6.3411,-6.4026 -9.5054,-9.6057 l 2.3731,-2.4024 2.3772,2.4024 2.3717,-2.4024 2.3834,2.4024 -2.3834,2.4049 2.3834,2.3978 V 27.4666 22.667 c -19.0145,0 -38.02,0 -57.0337,0 z m 66.5377,9.6057 2.3743,-2.4029 -2.3743,-2.4001 -2.378,2.4001 z m -76.0417,0 2.3758,-2.4029 -2.3758,-2.4001 -2.3777,2.4001 z m -9.5048,0 c 3.1632,-3.1989 6.3343,-6.4026 9.5048,-9.6057 l -2.3777,-2.4024 -2.3728,2.4024 -2.3794,-2.4024 -2.3749,2.4024 2.3749,2.4049 -2.3749,2.3978 -2.3766,-2.3978 2.3766,-2.4049 -2.3766,-2.4024 -2.3774,2.4024 -2.3805,-2.4024 -2.3718,2.4024 c 3.1669,3.2031 6.3357,6.4068 9.5063,9.6057 z m -9.5063,0 2.3718,-2.4029 -2.3718,-2.4001 -2.376,2.4001 z m -9.5071,0 c 3.17,-3.1989 6.3388,-6.4026 9.5071,-9.6057 l -2.376,-2.4024 -2.3765,2.4024 -2.3769,-2.4024 -2.3777,2.4024 2.3777,2.4049 -2.3777,2.3978 -2.3805,-2.3978 2.3805,-2.4049 -2.3805,-2.4024 -2.3743,2.4024 -2.374,-2.4024 -2.3755,2.4024 c 3.17,3.2031 6.3355,6.4068 9.5043,9.6057 z m -9.5043,0 2.3755,-2.4029 -2.3755,-2.4001 -2.3774,2.4001 z m 47.5265,-9.6057 v 4.8027 l -2.3774,-2.3978 2.3774,-2.4049 -2.3774,-2.4024 -2.3771,2.4024 -2.3737,-2.4024 -2.3758,2.4024 9.504,9.6057 -2.3774,2.4004 -2.3771,-2.4004 -2.3737,2.4004 -2.3758,-2.4004 -2.3777,2.4004 -2.3728,-2.4004 -2.3794,2.4004 -2.3749,-2.4004 -2.3766,2.4004 -2.3774,-2.4004 -2.3805,2.4004 -2.3718,-2.4004 -2.376,2.4004 -2.3765,-2.4004 -2.3769,2.4004 -2.3777,-2.4004 -2.3805,2.4004 -2.3743,-2.4004 -2.374,2.4004 -2.3755,-2.4004 -2.3774,2.4004 -2.3811,-2.4004 -2.3737,2.4004 -2.374,-2.4004 c 3.1668,-3.1989 6.3351,-6.4026 9.5062,-9.6057 l -2.3774,-2.4024 -2.3811,2.4024 -2.3737,-2.4024 -2.374,2.4024 2.374,2.4049 -2.374,2.3978 V 27.4666 22.667 c 19.0105,0 38.0239,0 57.0327,0 z m -142.7436,9.6057 2.3748,-2.4029 -2.3748,-2.4001 -2.3783,2.4001 z m -9.5083,0 c 3.1723,-3.1989 6.3394,-6.4026 9.5083,-9.6057 l -2.3783,-2.4024 -2.3752,2.4024 -2.3748,-2.4024 -2.38,2.4024 2.38,2.4049 -2.38,2.3978 -2.3768,-2.3978 2.3768,-2.4049 -2.3768,-2.4024 -2.3692,2.4024 -2.3806,-2.4024 -2.3723,2.4024 c 3.1638,3.2031 6.3312,6.4068 9.4989,9.6057 z m -9.4989,0 2.3723,-2.4029 -2.3723,-2.4001 -2.3811,2.4001 z m -9.5071,0 c 3.1677,-3.1989 6.3383,-6.4026 9.5071,-9.6057 l -2.3811,-2.4024 -2.3788,2.4024 -2.3729,-2.4024 -2.3743,2.4024 2.3743,2.4049 -2.3743,2.3978 -2.3834,-2.3978 2.3834,-2.4049 -2.3834,-2.4024 -2.3717,2.4024 -2.3726,-2.4024 -2.3808,2.4024 c 3.1697,3.2031 6.3391,6.4068 9.5085,9.6057 z m -9.5085,0 2.3808,-2.4029 -2.3808,-2.4001 -2.3743,2.4001 z m 47.5287,-9.6057 v 4.8027 l -2.3794,-2.3978 2.3794,-2.4049 -2.3794,-2.4024 -2.3748,2.4024 -2.3769,-2.4024 -2.3748,2.4024 9.5059,9.6057 -2.3794,2.4004 -2.3748,-2.4004 -2.3769,2.4004 -2.3748,-2.4004 -2.3783,2.4004 -2.3752,-2.4004 -2.3748,2.4004 -2.38,-2.4004 -2.3768,2.4004 -2.3692,-2.4004 -2.3806,2.4004 -2.3723,-2.4004 -2.3811,2.4004 -2.3788,-2.4004 -2.3729,2.4004 -2.3743,-2.4004 -2.3834,2.4004 -2.3717,-2.4004 -2.3726,2.4004 -2.3808,-2.4004 -2.3743,2.4004 -2.376,-2.4004 -2.3724,2.4004 -2.3816,-2.4004 c 3.1688,-3.1989 6.3399,-6.4026 9.5043,-9.6057 l -2.3743,-2.4024 -2.376,2.4024 -2.3724,-2.4024 -2.3816,2.4024 2.3816,2.4049 -2.3816,2.3978 V 27.4666 22.667 c 19.0128,0 38.0188,0 57.033,0 z m -104.5556,9.6057 -2.3816,-2.4029 2.3816,-2.4001 2.3749,2.4001 z m 9.5032,0 c -3.1689,-3.1989 -6.3389,-6.4026 -9.5032,-9.6057 l 2.3749,-2.4024 2.3751,2.4024 2.3755,-2.4024 2.3777,2.4024 -2.3777,2.4049 2.3777,2.3978 2.3723,-2.3978 -2.3723,-2.4049 2.3723,-2.4024 2.3788,2.4024 2.376,-2.4024 2.3769,2.4024 c -3.1706,3.2031 -6.3377,6.4068 -9.504,9.6057 z m 9.504,0 -2.3769,-2.4029 2.3769,-2.4001 2.3777,2.4001 z m 9.5048,0 c -3.1683,-3.1989 -6.3382,-6.4026 -9.5048,-9.6057 l 2.3777,-2.4024 2.3794,2.4024 2.37,-2.4024 2.3777,2.4024 -2.3777,2.4049 2.3777,2.3978 2.3746,-2.3978 -2.3746,-2.4049 2.3746,-2.4024 2.3788,2.4024 2.3783,-2.4024 2.3735,2.4024 c -3.1689,3.2031 -6.3375,6.4068 -9.5052,9.6057 z m 9.5052,0 -2.3735,-2.4029 2.3735,-2.4001 2.3777,2.4001 z m 76.043,0 -2.3771,-2.4029 2.3771,-2.4001 2.376,2.4001 z m 9.5032,0 c -3.1627,-3.1989 -6.3343,-6.4026 -9.5032,-9.6057 l 2.376,-2.4024 2.3729,2.4024 2.38,-2.4024 2.3743,2.4024 -2.3743,2.4049 2.3743,2.3978 2.3768,-2.3978 -2.3768,-2.4049 2.3768,-2.4024 2.3777,2.4024 2.38,-2.4024 2.3723,2.4024 c -3.1663,3.2031 -6.3357,6.4068 -9.5068,9.6057 z m 9.5068,0 -2.3723,-2.4029 2.3723,-2.4001 2.3754,2.4001 z m 9.5071,0 c -3.17,-3.1989 -6.3377,-6.4026 -9.5071,-9.6057 l 2.3754,-2.4024 2.3777,2.4024 2.3774,-2.4024 2.3766,2.4024 -2.3766,2.4049 2.3766,2.3978 2.3811,-2.3978 -2.3811,-2.4049 2.3811,-2.4024 2.374,2.4024 2.3738,-2.4024 2.376,2.4024 c -3.17,3.2031 -6.3355,6.4068 -9.5049,9.6057 z m 9.5049,0 -2.376,-2.4029 2.376,-2.4001 2.3762,2.4001 z m -47.5266,-9.6057 v 4.8027 l 2.3763,-2.3978 -2.3763,-2.4049 2.3763,-2.4024 2.3783,2.4024 2.3729,-2.4024 2.3771,2.4024 -9.5046,9.6057 2.3763,2.4004 2.3783,-2.4004 2.3729,2.4004 2.3771,-2.4004 2.376,2.4004 2.3729,-2.4004 2.38,2.4004 2.3743,-2.4004 2.3768,2.4004 2.3777,-2.4004 2.38,2.4004 2.3723,-2.4004 2.3754,2.4004 2.3777,-2.4004 2.3774,2.4004 2.3766,-2.4004 2.3811,2.4004 2.374,-2.4004 2.3738,2.4004 2.376,-2.4004 2.3762,2.4004 2.3812,-2.4004 2.3737,2.4004 2.374,-2.4004 c -3.1672,-3.1989 -6.3352,-6.4026 -9.5051,-9.6057 l 2.3762,-2.4024 2.3812,2.4024 2.3737,-2.4024 2.374,2.4024 -2.374,2.4049 2.374,2.3978 V 27.4666 22.667 c -19.01,0 -38.0239,0 -57.0317,0 z m 66.619,4.8821 0.0777,-0.0794 2.376,2.4001 -2.376,2.4029 -0.0777,-0.0805 -0.079,0.0805 -2.3755,-2.4029 2.3755,-2.4001 z m 0,-4.9626 0.0777,0.0805 -0.0777,0.0791 -0.079,-0.0791 z m -285.2376,9.6862 -2.3749,-2.4029 2.3749,-2.4001 2.3794,2.4001 z m 9.5077,0 c -3.1728,-3.1989 -6.3383,-6.4026 -9.5077,-9.6057 l 2.3794,-2.4024 2.374,2.4024 2.3737,-2.4024 2.3806,2.4024 -2.3806,2.4049 2.3806,2.3978 2.3768,-2.3978 -2.3768,-2.4049 2.3768,-2.4024 2.3704,2.4024 2.3799,-2.4024 2.3723,2.4024 c -3.1637,3.2031 -6.3311,6.4068 -9.4994,9.6057 z m 9.4994,0 -2.3723,-2.4029 2.3723,-2.4001 2.3812,2.4001 z m 9.506,0 c -3.1677,-3.1989 -6.3377,-6.4026 -9.506,-9.6057 l 2.3812,-2.4024 2.3777,2.4024 2.3728,-2.4024 2.3743,2.4024 -2.3743,2.4049 2.3743,2.3978 2.3845,-2.3978 -2.3845,-2.4049 2.3845,-2.4024 2.3724,2.4024 2.372,-2.4024 2.3808,2.4024 c -3.1697,3.2031 -6.3385,6.4068 -9.5097,9.6057 z m 9.5097,0 -2.3808,-2.4029 2.3808,-2.4001 2.3732,2.4001 z m -47.5288,-9.6057 v 4.8027 l 2.3794,-2.3978 -2.3794,-2.4049 2.3794,-2.4024 2.3743,2.4024 2.3774,-2.4024 2.3749,2.4024 -9.506,9.6057 2.3794,2.4004 2.3743,-2.4004 2.3774,2.4004 2.3749,-2.4004 2.3794,2.4004 2.374,-2.4004 2.3737,2.4004 2.3806,-2.4004 2.3768,2.4004 2.3704,-2.4004 2.3799,2.4004 2.3723,-2.4004 2.3812,2.4004 2.3777,-2.4004 2.3728,2.4004 2.3743,-2.4004 2.3845,2.4004 2.3724,-2.4004 2.372,2.4004 2.3808,-2.4004 2.3732,2.4004 2.3777,-2.4004 2.3723,2.4004 2.3817,-2.4004 c -3.1706,-3.1989 -6.34,-6.4026 -9.5049,-9.6057 l 2.3732,-2.4024 2.3777,2.4024 2.3723,-2.4024 2.3817,2.4024 -2.3817,2.4049 2.3817,2.3978 V 27.4666 22.667 c -19.0146,0 -38.02,0 -57.0337,0 z m 104.5551,9.6057 2.3816,-2.4029 -2.3816,-2.4001 -2.3743,2.4001 z m -9.502,0 c 3.1677,-3.1989 6.3382,-6.4026 9.502,-9.6057 l -2.3743,-2.4024 -2.3757,2.4024 -2.3755,-2.4024 -2.3765,2.4024 2.3765,2.4049 -2.3765,2.3978 -2.3729,-2.3978 2.3729,-2.4049 -2.3729,-2.4024 -2.38,2.4024 -2.3754,-2.4024 -2.3757,2.4024 c 3.1694,3.2031 6.3365,6.4068 9.504,9.6057 z m -9.504,0 2.3757,-2.4029 -2.3757,-2.4001 -2.3789,2.4001 z m -9.5043,0 c 3.1671,-3.1989 6.3371,-6.4026 9.5043,-9.6057 l -2.3789,-2.4024 -2.3782,2.4024 -2.3707,-2.4024 -2.3765,2.4024 2.3765,2.4049 -2.3765,2.3978 -2.3769,-2.3978 2.3769,-2.4049 -2.3769,-2.4024 -2.3771,2.4024 -2.3783,-2.4024 -2.3746,2.4024 c 3.1686,3.2031 6.3386,6.4068 9.5069,9.6057 z m -9.5069,0 2.3746,-2.4029 -2.3746,-2.4001 -2.3777,2.4001 z m -76.0419,0 2.3757,-2.4029 -2.3757,-2.4001 -2.3777,2.4001 z m -9.5043,0 c 3.1626,-3.1989 6.3349,-6.4026 9.5043,-9.6057 l -2.3777,-2.4024 -2.3729,2.4024 -2.3782,-2.4024 -2.3755,2.4024 2.3755,2.4049 -2.3755,2.3978 -2.3757,-2.3978 2.3757,-2.4049 -2.3757,-2.4024 -2.3788,2.4024 -2.38,-2.4024 -2.3717,2.4024 c 3.1668,3.2031 6.3351,6.4068 9.5062,9.6057 z m -9.5062,0 2.3717,-2.4029 -2.3717,-2.4001 -2.3755,2.4001 z m -9.5072,0 c 3.1706,-3.1989 6.3383,-6.4026 9.5072,-9.6057 l -2.3755,-2.4024 -2.3771,2.4024 -2.3774,-2.4024 -2.3772,2.4024 2.3772,2.4049 -2.3772,2.3978 -2.3799,-2.3978 2.3799,-2.4049 -2.3799,-2.4024 -2.3746,2.4024 -2.3749,-2.4024 -2.3748,2.4024 c 3.1699,3.2031 6.3354,6.4068 9.5042,9.6057 z m -9.5042,0 2.3748,-2.4029 -2.3748,-2.4001 -2.3769,2.4001 z m 47.5259,-9.6057 v 4.8027 l -2.3757,-2.3978 2.3757,-2.4049 -2.3757,-2.4024 -2.3788,2.4024 -2.3738,-2.4024 -2.3757,2.4024 9.504,9.6057 -2.3757,2.4004 -2.3788,-2.4004 -2.3738,2.4004 -2.3757,-2.4004 -2.3777,2.4004 -2.3729,-2.4004 -2.3782,2.4004 -2.3755,-2.4004 -2.3757,2.4004 -2.3788,-2.4004 -2.38,2.4004 -2.3717,-2.4004 -2.3755,2.4004 -2.3771,-2.4004 -2.3774,2.4004 -2.3772,-2.4004 -2.3799,2.4004 -2.3746,-2.4004 -2.3749,2.4004 -2.3748,-2.4004 -2.3769,2.4004 -2.3817,-2.4004 -2.3737,2.4004 -2.374,-2.4004 c 3.1666,-3.1989 6.3351,-6.4026 9.5063,-9.6057 l -2.3769,-2.4024 -2.3817,2.4024 -2.3737,-2.4024 -2.374,2.4024 2.374,2.4049 -2.374,2.3978 V 27.4666 22.667 c 19.0105,0 38.0239,0 57.0322,0 z m 114.0619,0 -2.3729,2.4049 2.3729,2.3978 2.3737,-2.3978 z m 0,0 -2.3729,-2.4024 -2.3788,2.4024 -2.3735,-2.4024 -2.3816,2.4024 9.5068,9.6057 2.3737,2.4004 2.3794,-2.4004 2.3724,2.4004 2.3816,-2.4004 2.3749,2.4004 2.3751,-2.4004 2.3755,2.4004 2.3777,-2.4004 2.3723,2.4004 2.3788,-2.4004 2.376,2.4004 2.3769,-2.4004 2.3777,2.4004 2.3794,-2.4004 2.37,2.4004 2.3777,-2.4004 2.3746,2.4004 2.3788,-2.4004 2.3783,2.4004 2.3735,-2.4004 2.3777,2.4004 2.3754,-2.4004 2.3774,2.4004 2.3749,-2.4004 c -3.1672,-3.1989 -6.3372,-6.4026 -9.5054,-9.6057 l 2.3777,-2.4024 2.3754,2.4024 2.3774,-2.4024 2.3749,2.4024 -2.3749,2.4049 2.3749,2.3978 V 27.4666 22.667 c -19.0106,0 -38.0194,0 -57.0297,0 -19.0088,0 -38.0171,0 -57.0282,0 v 4.7996 4.8027 l 2.3748,-2.3978 -2.3748,-2.4049 2.3748,-2.4024 2.3757,2.4024 2.376,-2.4024 2.3777,2.4024 c -3.1677,3.2031 -6.3377,6.4068 -9.5042,9.6057 l 2.3748,2.4004 2.3757,-2.4004 2.376,2.4004 2.3777,-2.4004 2.3746,2.4004 2.3783,-2.4004 2.3771,2.4004 2.3769,-2.4004 2.3765,2.4004 2.3707,-2.4004 2.3782,2.4004 2.3789,-2.4004 2.3757,2.4004 2.3754,-2.4004 2.38,2.4004 2.3729,-2.4004 2.3765,2.4004 2.3755,-2.4004 2.3757,2.4004 2.3743,-2.4004 2.3816,2.4004 2.3735,-2.4004 2.3788,2.4004 2.3729,-2.4004 9.5071,-9.6057 -2.3816,-2.4024 -2.3724,2.4024 -2.3794,-2.4024 z m -237.7945,9.6057 -2.3768,-2.4029 2.3768,-2.4001 2.3766,2.4001 z m 9.5032,0 C 29.8803,33.8734 26.708,30.6697 23.5397,27.4666 l 2.3766,-2.4024 2.374,2.4024 2.3777,-2.4024 2.3749,2.4024 -2.3749,2.4049 2.3749,2.3978 2.3768,-2.3978 -2.3768,-2.4049 2.3768,-2.4024 2.3777,2.4024 2.3795,-2.4024 2.3723,2.4024 c -3.1663,3.2031 -6.3346,6.4068 -9.5063,9.6057 z m 9.5063,0 -2.3723,-2.4029 2.3723,-2.4001 2.3765,2.4001 z m 9.5077,0 c -3.1706,-3.1989 -6.3383,-6.4026 -9.5077,-9.6057 l 2.3765,-2.4024 2.3766,2.4024 2.3774,-2.4024 2.3772,2.4024 -2.3772,2.4049 2.3772,2.3978 2.3805,-2.3978 -2.3805,-2.4049 2.3805,-2.4024 2.3743,2.4024 2.374,-2.4024 2.376,2.4024 c -3.17,3.2031 -6.3354,6.4068 -9.5048,9.6057 z m 9.5048,0 -2.376,-2.4029 2.376,-2.4001 2.3757,2.4001 z M 14.0352,27.4666 v 4.8027 l 2.3757,-2.3978 -2.3757,-2.4049 2.3757,-2.4024 2.3788,2.4024 2.3732,-2.4024 2.3768,2.4024 -9.5045,9.6057 2.3757,2.4004 2.3788,-2.4004 2.3732,2.4004 2.3768,-2.4004 2.3766,2.4004 2.374,-2.4004 2.3777,2.4004 2.3749,-2.4004 2.3768,2.4004 2.3777,-2.4004 2.3795,2.4004 2.3723,-2.4004 2.3765,2.4004 2.3766,-2.4004 2.3774,2.4004 2.3772,-2.4004 2.3805,2.4004 2.3743,-2.4004 2.374,2.4004 2.376,-2.4004 2.3757,2.4004 2.3811,-2.4004 2.3738,2.4004 2.3745,-2.4004 c -3.1663,-3.1989 -6.3357,-6.4026 -9.5051,-9.6057 l 2.3757,-2.4024 2.3811,2.4024 2.3738,-2.4024 2.3745,2.4024 -2.3745,2.4049 2.3745,2.3978 V 27.4666 22.667 c -19.0099,0 -38.0239,0 -57.0316,0 z m 66.6187,4.8821 -0.0794,-0.0794 -2.3754,2.4001 2.3754,2.4029 0.0794,-0.0805 0.0779,0.0805 2.376,-2.4029 -2.376,-2.4001 z m 0,-4.9626 -0.0794,0.0805 0.0794,0.0791 0.0779,-0.0791 z m 0,9.7653 -0.0794,-0.0791 -2.3754,2.4004 -2.3786,-2.4004 -2.3748,2.4004 -2.3789,-2.4004 c 3.1717,-3.1989 6.336,-6.4026 9.5077,-9.6057 l -2.3754,-2.4024 -2.3786,2.4024 -2.3748,-2.4024 -2.3789,2.4024 2.3789,2.4049 -2.3789,2.3978 V 27.4666 22.667 h 9.5871 9.5862 v 4.7996 4.8027 l -2.3788,-2.3978 2.3788,-2.4049 -2.3788,-2.4024 -2.3738,2.4024 -2.3797,-2.4024 -2.376,2.4024 c 3.1729,3.2031 6.3366,6.4068 9.5083,9.6057 l -2.3788,2.4004 -2.3738,-2.4004 -2.3797,2.4004 -2.376,-2.4004 z m 361.362,0 0.0777,-0.0791 2.376,2.4004 2.3786,-2.4004 2.3743,2.4004 2.3794,-2.4004 c -3.1723,-3.1989 -6.3355,-6.4026 -9.5083,-9.6057 l 2.376,-2.4024 2.3786,2.4024 2.3743,-2.4024 2.3794,2.4024 -2.3794,2.4049 2.3794,2.3978 V 27.4666 22.667 h -9.586 -9.5873 v 4.7996 4.8027 l 2.3794,-2.3978 -2.3794,-2.4049 2.3794,-2.4024 2.3743,2.4024 2.3791,-2.4024 2.3755,2.4024 c -3.1717,3.2031 -6.336,6.4068 -9.5083,9.6057 l 2.3794,2.4004 2.3743,-2.4004 2.3791,2.4004 2.3755,-2.4004 z"/><path id="path30" style="fill:#ef3321;fill-opacity:1;fill-rule:evenodd;stroke:none" d="M 10.353,18.9901 H 584.5181 V 16.7933 H 10.353 Z"/></g></g></g></g></g></svg>